# xmcd
#
# Track frame offsets:
#	150
#	21214
#	39862
#	50111
#	65336
#	79952
#	99977
#	113633
#	129881
#	145921
#	166746
#	182467
#	200476
#	219332
#	239757
#	256838
#	274783
#	295943
#	310992
#	324217
#
# Disc length: 4533 seconds
#
# Revision: 0
# Processed by: cddbd v1.5.1PL0 Copyright (c) Steve Scherf et al.
# Submitted via: dBpowerAMP V4.0
#
DISCID=1611b314
DTITLE=Lili Ivanova - Zlatni Hitove
DYEAR=1900
DGENRE=
TTITLE0=Hrizantemi
TTITLE1=Shturche
TTITLE2=Bez radio ne moga
TTITLE3=Express tango
TTITLE4=Stari piateliu
TTITLE5=Kamino
TTITLE6=Kapitanyt
TTITLE7=Ne moga da ti viarvam
TTITLE8=Osydeni dushi
TTITLE9=Sboguvane
TTITLE10=Strelkata
TTITLE11=Belite manastiri
TTITLE12=Dansingyt na samotata
TTITLE13=Dve hubavi ochi
TTITLE14=Schupena chasha
TTITLE15=Skitnitza
TTITLE16=Vetrove
TTITLE17=Za da te ima
TTITLE18=Lunnata sonata
TTITLE19=Gorchiva chasha
EXTD=
EXTT0=
EXTT1=
EXTT2=
EXTT3=
EXTT4=
EXTT5=
EXTT6=
EXTT7=
EXTT8=
EXTT9=
EXTT10=
EXTT11=
EXTT12=
EXTT13=
EXTT14=
EXTT15=
EXTT16=
EXTT17=
EXTT18=
EXTT19=
PLAYORDER=
